<?xml version="1.0" encoding="utf-8"?>
<!-- Generator: Adobe Illustrator 23.0.3, SVG Export Plug-In . SVG Version: 6.00 Build 0)  -->
<svg version="1.1" id="Capa_1" xmlns="http://www.w3.org/2000/svg" xmlns:xlink="http://www.w3.org/1999/xlink" x="0px" y="0px"
	 viewBox="0 0 512 512" style="enable-background:new 0 0 512 512;" xml:space="preserve">
<style type="text/css">
	.st0{fill:#E6E6E6;}
	.st1{font-family:'MyriadPro-Regular';}
	.st2{font-size:34.1212px;}
</style>
<g>
	<g>
		<g>
			<path class="st0" d="M392.9,124.9c-4.7-27.8-18.4-53.1-39.4-72.3c-23.4-21.4-53.7-33.2-85.4-33.2c-24.4,0-48.3,7-68.7,20.2
				c-17,11-31.1,25.8-41.1,43.2c-4.3-0.8-8.8-1.3-13.3-1.3c-38.2,0-69.3,31.1-69.3,69.3c0,4.9,0.5,9.7,1.4,14.4
				c-24.7,18-39.7,46.9-39.7,77.7c0,24.9,9.3,49.1,26.1,68.2c17.3,19.6,40.3,31.2,64.7,32.5c0.3,0,0.4,0,0.7,0h77.3
				c6.7,0,12.1-5.4,12.1-12.1c0-6.7-5.4-12.1-12.1-12.1h-76.9c-36.8-2.2-67.7-37.2-67.7-76.6c0-25.4,13.7-49.2,35.7-62
				c5.1-3,7.3-9.2,5.3-14.7c-1.8-4.9-2.7-10-2.7-15.5c0-24.8,20.2-45,45-45c5.3,0,10.5,0.9,15.4,2.7c5.9,2.2,12.5-0.5,15.2-6.2
				c16.8-35.7,53.1-58.7,92.6-58.7c53,0,96.8,39.7,101.8,92.4c0.5,5.5,4.7,9.9,10.1,10.8c40,6.8,70.2,43.8,70.2,85.9
				c0,44.7-35.1,83.5-78.4,86.8h-66.2c-6.7,0-12.1,5.4-12.1,12.1c0,6.7,5.4,12.1,12.1,12.1h66.7c0.3,0,0.5,0,0.9,0
				c27.4-2,53-14.6,72.1-35.6c19-20.8,29.3-47.6,29.3-75.5C474.4,182.1,440,137.3,392.9,124.9z"/>
			<path class="st0" d="M328.8,254.5c4.8-4.8,4.8-12.4,0-17.2L264.6,173c-2.2-2.2-5.4-3.6-8.5-3.6c-3.1,0-6.3,1.3-8.5,3.6
				l-64.3,64.3c-4.8,4.8-4.8,12.4,0,17.2c2.3,2.3,5.5,3.6,8.5,3.6s6.2-1.2,8.5-3.6l43.6-43.6v200.3c0,6.7,5.4,12.1,12.1,12.1
				c6.7,0,12.1-5.4,12.1-12.1V210.9l43.6,43.6C316.4,259.2,324.1,259.2,328.8,254.5z"/>
		</g>
	</g>
</g>
<text transform="matrix(1 0 0 1 158.5005 474.2393)" class="st0 st1 st2">CLIQUE AQUI </text>
</svg>
